<svg width="8" height="6" viewBox="0 0 8 6" fill="none" xmlns="http://www.w3.org/2000/svg">
<path d="M4.24398 5.22512C4.08419 5.22437 3.9266 5.19064 3.78262 5.12638C3.63864 5.06211 3.51188 4.96891 3.41156 4.85356L0.776611 1.89266C0.622641 1.7144 0.52575 1.49961 0.496979 1.27276C0.468208 1.04591 0.508715 0.816131 0.613883 0.609598C0.699177 0.430101 0.838368 0.277171 1.01483 0.169075C1.1913 0.0609782 1.39757 0.00228341 1.60903 0H6.87892C7.09038 0.00228341 7.29666 0.0609782 7.47312 0.169075C7.64958 0.277171 7.78877 0.430101 7.87407 0.609598C7.97924 0.816131 8.01974 1.04591 7.99097 1.27276C7.9622 1.49961 7.86531 1.7144 7.71134 1.89266L5.07639 4.85356C4.97607 4.96891 4.84931 5.06211 4.70533 5.12638C4.56135 5.19064 4.40376 5.22437 4.24398 5.22512Z" fill="#FCC822"/>
</svg>
