<svg width="48" height="48" viewBox="0 0 48 48" fill="none" xmlns="http://www.w3.org/2000/svg">
<path d="M41.9998 5.39988L41.0998 4.49988C39.1498 2.54988 35.8498 2.54988 33.8998 4.49988L32.0998 6.29988C28.9498 4.79988 25.3498 4.19988 21.5998 4.64988C12.7498 5.69988 5.69977 12.7499 4.64977 21.5999C3.29977 33.4499 12.4498 43.4999 23.9998 43.4999C27.2998 43.4999 30.4498 42.7499 33.1498 41.2499L36.4498 44.5499C36.5998 44.6999 36.7498 44.8499 36.8998 44.8499H37.0498H37.1998C37.3498 44.8499 37.3498 44.8499 37.4998 44.8499C37.6498 44.8499 37.6498 44.8499 37.7998 44.8499H37.9498H38.0998C38.2498 44.8499 38.3998 44.6999 38.5498 44.5499C38.6998 44.3999 38.8498 44.2499 38.8498 44.0999V43.9499V43.7999V43.6499V36.5999C41.6998 33.1499 43.3498 28.7999 43.3498 24.1499C43.3498 20.3999 42.2998 17.0999 40.4998 14.0999L41.9998 12.5999C43.9498 10.6499 43.9498 7.34988 41.9998 5.39988ZM38.9998 25.4999H40.4998C40.0498 30.4499 37.3498 34.7999 33.4498 37.4999C32.8498 37.9499 32.2498 38.2499 31.6498 38.5499C29.8498 39.4499 27.7498 40.1999 25.6498 40.3499V38.8499C25.6498 38.0999 24.8998 37.3499 24.1498 37.3499C23.3998 37.3499 22.6498 38.0999 22.6498 38.8499V40.3499C14.6998 39.5999 8.39977 33.2999 7.64977 25.3499H9.14977C9.89977 25.3499 10.6498 24.5999 10.6498 23.8499C10.6498 23.0999 9.89977 22.3499 9.14977 22.3499H7.49977C8.24977 14.5499 14.5498 8.24988 22.4998 7.49988V8.99988C22.4998 9.74988 23.2498 10.4999 23.9998 10.4999C24.7498 10.4999 25.4998 9.74988 25.4998 8.99988V7.49988C33.4498 8.24988 39.7498 14.5499 40.4998 22.4999H38.9998C38.2498 22.4999 37.4998 23.2499 37.4998 23.9999C37.4998 24.7499 38.2498 25.4999 38.9998 25.4999Z" fill="#FCC822"/>
<path d="M24 10.4999V4.49988C21.15 4.49988 18.3 5.09988 15.9 6.29988L14.1 4.49988C12.15 2.54988 8.84998 2.54988 6.89998 4.49988L5.99998 5.39988C4.04998 7.34988 4.04998 10.6499 5.99998 12.5999L7.34998 13.9499C5.54998 16.9499 4.49998 20.2499 4.49998 23.9999C4.49998 28.6499 6.14998 32.9999 8.99998 36.4499V43.4999C8.99998 43.6499 8.99998 43.7999 8.99998 43.9499V44.0999C8.99998 44.0999 8.99998 44.0999 8.99998 44.2499C8.99998 44.3999 9.14998 44.5499 9.29998 44.6999C9.44998 44.8499 9.59998 44.8499 9.74998 44.9999C9.74998 44.9999 9.74998 44.9999 9.89998 44.9999H10.05C10.2 44.9999 10.35 44.9999 10.5 44.9999C10.65 44.9999 10.8 44.9999 10.95 44.9999H11.1C11.1 44.9999 11.1 44.9999 11.25 44.9999C11.4 44.9999 11.55 44.8499 11.7 44.6999L15 41.3999C17.7 42.8999 20.85 43.6499 24.15 43.6499V37.6499C23.4 37.6499 22.65 38.3999 22.65 39.1499V40.6499C20.4 40.4999 18.45 39.8999 16.65 38.8499C16.05 38.5499 15.45 38.0999 14.85 37.7999C10.95 35.0999 8.24998 30.7499 7.79998 25.7999H9.29998C10.05 25.7999 10.8 25.0499 10.8 24.2999C10.8 23.5499 10.05 22.7999 9.29998 22.7999H7.49998C8.24998 14.5499 14.55 8.24988 22.5 7.49988V8.99988C22.5 9.74988 23.25 10.4999 24 10.4999Z" fill="#FCC822"/>
</svg>
